<?xml version="1.0" encoding="utf-8"?>
<!-- Generator: Adobe Illustrator 19.0.0, SVG Export Plug-In . SVG Version: 6.00 Build 0)  -->
<svg version="1.1" id="Layer_1" xmlns="http://www.w3.org/2000/svg" xmlns:xlink="http://www.w3.org/1999/xlink" x="0px" y="0px"
	 viewBox="0 0 828.9 135.9" style="display:none;enable-background:new 0 0 828.9 135.9;" xml:space="preserve">
    <defs>
<g id="williams-logo">
	<path class="st0" d="M50.8,133.9L18.6,23.7c-2.8-9.1-4.4-11.7-14.2-11.7H0V1.8h55.4v10.3h-9.9c-4.5,0-7.7,1.4-7.7,5.5
		c0,2.4,0.4,4.4,1.4,8.1L62.1,110h0.4l27.3-82.9c0.6-2-4.7-15-11.9-15h-9.7V1.8h57.2v10.3h-9.7c-4.2,0-8.9,0.6-8.9,6.1
		c0,3.2,2.6,10.5,3.6,14l22.7,77.3h0.4l23.5-78.9c1-3.2,2.6-8.7,2.6-12.3c0-5.9-4.2-6.3-9.1-6.3h-10.3V1.8h50.2v10.3h-5.7
		c-7.5,0-10.9,4.4-12.1,8.3l-34.6,113.5h-15.8L95.7,46.7h-0.4l-28.7,87.2H50.8z"/>
	<path class="st0" d="M228.3,114.5c0,6.1,1.4,9.1,7.9,9.1h12.7v9.3h-58.2v-9.3h12.9c6.5,0,7.9-3,7.9-9.1V58.8c0-6.1-1.4-9.1-7.9-9.1
		h-12.9v-9.3h37.6V114.5z M217.2,21.4c-5.9,0-10.7-4.7-10.7-10.7c0-5.7,4.7-10.7,10.7-10.7c5.7,0,10.7,4.9,10.7,10.7
		C227.9,16.6,223,21.4,217.2,21.4z"/>
	<path class="st0" d="M294.2,114.5c0,6.1,1.4,9.1,7.9,9.1h12.7v9.3h-58.2v-9.3h12.9c6.5,0,7.9-3,7.9-9.1V20.2c0-6.1-4.7-9.1-7.9-9.1
		h-12.9V1.8h37.6V114.5z"/>
	<path class="st0" d="M360.1,114.5c0,6.1,1.4,9.1,7.9,9.1h12.7v9.3h-58.2v-9.3h12.9c6.5,0,7.9-3,7.9-9.1V20.2c0-6.1-4.7-9.1-7.9-9.1
		h-12.9V1.8h37.6V114.5z"/>
	<path class="st0" d="M425.9,114.5c0,6.1,1.4,9.1,7.9,9.1h12.7v9.3h-58.2v-9.3h12.9c6.5,0,7.9-3,7.9-9.1V58.8c0-6.1-1.4-9.1-7.9-9.1
		h-12.9v-9.3h37.6V114.5z M414.8,21.4c-5.9,0-10.7-4.7-10.7-10.7c0-5.7,4.7-10.7,10.7-10.7c5.7,0,10.7,4.9,10.7,10.7
		C425.5,16.6,420.6,21.4,414.8,21.4z"/>
	<path class="st0" d="M529.8,116.1c0,5.9,1.6,10.5,5.1,10.5c8.5,0,9.3-11.1,9.3-16.8v-8.3h9.3v5.7c0,21-7.1,28.7-22.2,28.7
		c-9.9,0-15.8-5.9-17.4-15.4c-9.7,10.7-20.8,15.4-35,15.4c-16,0-29.1-7.1-29.1-24.7c0-25.7,35.6-25.3,55.6-34.8
		c6.1-3,7.5-6.7,7.5-12.7c0-11.3-4.9-17-22.2-17c-7.7,0-17.4,1.2-23.1,7.7c5.9,1,9.1,4.2,9.1,10.1c0,7.7-6.3,10.5-11.9,10.5
		c-6.9,0-10.3-6.1-10.3-14c0-16.8,22.6-23.5,37.6-23.5c22.7,0,37.6,6.7,37.6,32.4V116.1z M513,82.5c-8.5,4.9-17.6,6.9-29.3,11.9
		c-10.7,4.5-15,8.9-15,15.8c0,10.3,5.5,16.4,15.6,16.4c13.1,0,28.7-12.3,28.7-25.9V82.5z"/>
	<path class="st0" d="M596.8,57.4h0.4c8.3-12.5,16-20,32.2-20c13.5,0,22.9,8.1,26.3,20c8.9-12.7,18.4-20,33.2-20
		c26.7,0,30.1,18,30.1,42.9v34.2c0,6.1,1.4,9.1,7.9,9.1h11.5v9.3h-53.4v-9.3h9.3c6.5,0,7.9-3,7.9-9.1V66.3
		c0-11.9-7.1-17.8-17.6-17.8C670,48.5,658,64.1,658,77v37.6c0,6.1,1.4,9.1,7.9,9.1h9.1v9.3h-50.8v-9.3h9.1c6.5,0,7.9-3,7.9-9.1V68.6
		c0-12.1-6.3-20.2-17.8-20.2c-14.8,0-26.5,16.4-26.5,28.5v37.6c0,6.1,1.4,9.1,7.9,9.1h8.9v9.3h-54.4v-9.3h12.9c6.5,0,7.9-3,7.9-9.1
		V58.8c0-6.1-1.4-9.1-7.9-9.1h-12.9v-9.3h37.6V57.4z"/>
	<path class="st0" d="M754.7,95.5c3,18.8,18,31.1,36.8,31.1c11.9,0,20.6-5.9,20.6-15.4c0-25.5-66.5-5.9-66.5-46.5
		c0-19.8,18-27.3,35.2-27.3c11.1,0,22.4,4,30.7,11.3l3.6-9.3h8.9v36.4h-9.3c-2.2-17.4-17.2-29.1-33.4-29.1c-8.7,0-18.8,3-18.8,15.8
		c0,23.5,66.5,5.9,66.5,44.7c0,20.8-18.6,28.7-36.8,28.7c-12.3,0-24.5-3.8-33.6-12.3l-3.8,10.3h-10.3V95.5H754.7z"/>
</g>
    </defs>
</svg>
