<?xml version="1.0" encoding="UTF-8" standalone="no"?>
<svg width="829px" height="136px" viewBox="0 0 829 136" version="1.1" xmlns="http://www.w3.org/2000/svg" xmlns:xlink="http://www.w3.org/1999/xlink">
    <!-- Generator: Sketch 39.1 (31720) - http://www.bohemiancoding.com/sketch -->
    <title>Williams_wordmark_12in_purple</title>
    <desc>Created with Sketch.</desc>
    <defs></defs>
    <g id="Page-1" stroke="none" stroke-width="1" fill="none" fill-rule="evenodd">
        <g id="Williams_wordmark_12in_purple" fill="#FFFFFF">
            <path d="M50.839,134.021 L18.595,23.836 C15.825,14.737 14.243,12.165 4.352,12.165 L0,12.165 L0,1.878 L55.389,1.878 L55.389,12.165 L45.498,12.165 C40.949,12.165 37.783,13.55 37.783,17.704 C37.783,20.078 38.179,22.056 39.168,25.814 L62.115,110.085 L62.511,110.085 L89.81,27.199 C90.403,25.221 85.062,12.165 77.94,12.165 L68.247,12.165 L68.247,1.878 L125.417,1.878 L125.417,12.165 L115.724,12.165 C111.57,12.165 106.822,12.758 106.822,18.297 C106.822,21.462 109.394,28.782 110.383,32.343 L133.132,109.69 L133.528,109.69 L157.068,30.76 C158.057,27.595 159.64,22.056 159.64,18.495 C159.64,12.561 155.485,12.165 150.54,12.165 L140.253,12.165 L140.253,1.878 L190.499,1.878 L190.499,12.165 L184.763,12.165 C177.246,12.165 173.883,16.517 172.696,20.473 L138.077,134.021 L122.252,134.021 L95.744,46.783 L95.349,46.783 L66.665,134.021 L50.839,134.021" id="Fill-1"></path>
            <path d="M217.231,21.462 C211.296,21.462 206.549,16.715 206.549,10.78 C206.549,5.043 211.296,0.098 217.231,0.098 C222.968,0.098 227.913,5.043 227.913,10.78 C227.913,16.715 222.968,21.462 217.231,21.462 L217.231,21.462 Z M228.309,114.635 C228.309,120.768 229.693,123.735 236.221,123.735 L248.882,123.735 L248.882,133.032 L190.723,133.032 L190.723,123.735 L203.581,123.735 C210.109,123.735 211.494,120.768 211.494,114.635 L211.494,58.85 C211.494,52.718 210.109,49.751 203.581,49.751 L190.723,49.751 L190.723,40.453 L228.309,40.453 L228.309,114.635 L228.309,114.635 Z" id="Fill-2"></path>
            <path d="M294.181,114.635 C294.181,120.768 295.565,123.735 302.093,123.735 L314.754,123.735 L314.754,133.032 L256.595,133.032 L256.595,123.735 L269.453,123.735 C275.981,123.735 277.366,120.768 277.366,114.635 L277.366,20.275 C277.366,14.143 272.618,11.176 269.453,11.176 L256.595,11.176 L256.595,1.878 L294.181,1.878 L294.181,114.635" id="Fill-3"></path>
            <path d="M360.053,114.635 C360.053,120.768 361.437,123.735 367.965,123.735 L380.626,123.735 L380.626,133.032 L322.467,133.032 L322.467,123.735 L335.325,123.735 C341.853,123.735 343.238,120.768 343.238,114.635 L343.238,20.275 C343.238,14.143 338.49,11.176 335.325,11.176 L322.467,11.176 L322.467,1.878 L360.053,1.878 L360.053,114.635" id="Fill-4"></path>
            <path d="M414.847,21.462 C408.912,21.462 404.165,16.715 404.165,10.78 C404.165,5.043 408.912,0.098 414.847,0.098 C420.583,0.098 425.529,5.043 425.529,10.78 C425.529,16.715 420.583,21.462 414.847,21.462 L414.847,21.462 Z M425.925,114.635 C425.925,120.768 427.309,123.735 433.837,123.735 L446.498,123.735 L446.498,133.032 L388.339,133.032 L388.339,123.735 L401.197,123.735 C407.725,123.735 409.11,120.768 409.11,114.635 L409.11,58.85 C409.11,52.718 407.725,49.751 401.197,49.751 L388.339,49.751 L388.339,40.453 L425.925,40.453 L425.925,114.635 L425.925,114.635 Z" id="Fill-5"></path>
            <path d="M512.963,82.588 C504.457,87.534 495.357,89.512 483.686,94.458 C473.004,99.007 468.652,103.359 468.652,110.283 C468.652,120.57 474.191,126.702 484.279,126.702 C497.335,126.702 512.963,114.437 512.963,100.788 L512.963,82.588 L512.963,82.588 Z M529.778,116.218 C529.778,122.152 531.36,126.702 534.921,126.702 C543.427,126.702 544.219,115.624 544.219,109.887 L544.219,101.579 L553.516,101.579 L553.516,107.316 C553.516,128.285 546.394,136 531.36,136 C521.469,136 515.535,130.065 513.952,120.57 C504.259,131.252 493.181,136 478.938,136 C462.915,136 449.859,128.878 449.859,111.272 C449.859,85.556 485.466,85.951 505.446,76.456 C511.578,73.489 512.963,69.73 512.963,63.796 C512.963,52.52 508.018,46.783 490.807,46.783 C483.092,46.783 473.399,47.97 467.663,54.498 C473.597,55.487 476.762,58.652 476.762,64.587 C476.762,72.302 470.432,75.071 464.893,75.071 C457.969,75.071 454.606,68.939 454.606,61.026 C454.606,44.212 477.158,37.486 492.192,37.486 C514.941,37.486 529.778,44.212 529.778,69.928 L529.778,116.218 L529.778,116.218 Z" id="Fill-6"></path>
            <path d="M596.838,57.466 L597.233,57.466 C605.542,45.003 613.257,37.486 629.478,37.486 C642.929,37.486 652.425,45.596 655.788,57.466 C664.69,44.805 674.185,37.486 689.021,37.486 C715.727,37.486 719.09,55.487 719.09,80.412 L719.09,114.635 C719.09,120.768 720.475,123.735 727.002,123.735 L738.476,123.735 L738.476,133.032 L685.065,133.032 L685.065,123.735 L694.362,123.735 C700.89,123.735 702.275,120.768 702.275,114.635 L702.275,66.367 C702.275,54.498 695.154,48.564 684.669,48.564 C670.031,48.564 657.964,64.191 657.964,77.05 L657.964,114.635 C657.964,120.768 659.348,123.735 665.876,123.735 L674.976,123.735 L674.976,133.032 L624.137,133.032 L624.137,123.735 L633.236,123.735 C639.764,123.735 641.149,120.768 641.149,114.635 L641.149,68.741 C641.149,56.674 634.819,48.564 623.345,48.564 C608.509,48.564 596.838,64.983 596.838,77.05 L596.838,114.635 C596.838,120.768 598.222,123.735 604.75,123.735 L613.652,123.735 L613.652,133.032 L559.252,133.032 L559.252,123.735 L572.11,123.735 C578.638,123.735 580.023,120.768 580.023,114.635 L580.023,58.85 C580.023,52.718 578.638,49.751 572.11,49.751 L559.252,49.751 L559.252,40.453 L596.838,40.453 L596.838,57.466" id="Fill-7"></path>
            <path d="M754.694,95.645 C757.661,114.437 772.695,126.702 791.488,126.702 C803.357,126.702 812.061,120.768 812.061,111.272 C812.061,85.754 745.594,105.338 745.594,64.785 C745.594,45.003 763.595,37.486 780.806,37.486 C791.884,37.486 803.159,41.442 811.468,48.762 L815.028,39.464 L823.93,39.464 L823.93,75.863 L814.633,75.863 C812.457,58.455 797.423,46.783 781.201,46.783 C772.497,46.783 762.409,49.751 762.409,62.609 C762.409,86.149 828.876,68.543 828.876,107.316 C828.876,128.087 810.281,136 792.082,136 C779.817,136 767.552,132.241 758.452,123.735 L754.694,134.021 L744.407,134.021 L744.407,95.645 L754.694,95.645" id="Fill-8"></path>
        </g>
    </g>
</svg>